<?xml version="1.0" encoding="iso-8859-1"?>
<!-- Generator: Adobe Illustrator 19.0.0, SVG Export Plug-In . SVG Version: 6.00 Build 0)  -->
<svg xmlns="http://www.w3.org/2000/svg" xmlns:xlink="http://www.w3.org/1999/xlink" version="1.1" id="Capa_1" x="0px" y="0px" viewBox="0 0 512.002 512.002" style="enable-background:new 0 0 512.002 512.002;" xml:space="preserve" width="512px" height="512px">
<g>
	<g>
		<path d="M437.021,74.982c-48.352-48.351-112.64-74.98-181.02-74.98c-46.004,0-90.675,12.213-129.963,35.409L95.022,4.394    C90.733,0.104,84.28-1.179,78.675,1.143C73.07,3.464,69.415,8.935,69.415,15v71.773c0,8.284,6.716,15,15,15h71.773    c6.067,0,11.537-3.655,13.858-9.26c2.321-5.605,1.038-12.057-3.252-16.347l-18.753-18.753    C181.038,39.435,218,30.001,256.001,30.001c124.617,0,226,101.383,226,226s-101.383,226-226,226s-226-101.383-226-226    c0-8.284-6.716-15-15-15s-15,6.716-15,15c0,68.38,26.628,132.667,74.98,181.019c48.353,48.352,112.64,74.981,181.02,74.981    s132.667-26.629,181.02-74.981c48.352-48.352,74.98-112.639,74.98-181.019S485.372,123.334,437.021,74.982z M99.415,71.772V51.214    l13.763,13.762c0.035,0.035,0.069,0.07,0.104,0.104l6.693,6.693H99.415z" fill="#4680fe"/>
	</g>
</g>
<g>
	<g>
		<path d="M352.401,241h-81.4v-81.4c0-8.284-6.715-15-15-15c-8.284,0-15,6.716-15,15V256c0,8.284,6.716,15,15,15h96.4    c8.284,0,15-6.716,15-15S360.685,241,352.401,241z" fill="#4680fe"/>
	</g>
</g>
<g>
</g>
<g>
</g>
<g>
</g>
<g>
</g>
<g>
</g>
<g>
</g>
<g>
</g>
<g>
</g>
<g>
</g>
<g>
</g>
<g>
</g>
<g>
</g>
<g>
</g>
<g>
</g>
<g>
</g>
</svg>
