<?xml version="1.0" encoding="iso-8859-1"?>
<!-- Generator: Adobe Illustrator 16.0.0, SVG Export Plug-In . SVG Version: 6.00 Build 0)  -->
<!DOCTYPE svg PUBLIC "-//W3C//DTD SVG 1.1//EN" "http://www.w3.org/Graphics/SVG/1.1/DTD/svg11.dtd">
<svg version="1.1" id="Capa_1" xmlns="http://www.w3.org/2000/svg" xmlns:xlink="http://www.w3.org/1999/xlink" x="0px" y="0px"
	 width="414.545px" height="414.545px" viewBox="0 0 414.545 414.545" style="enable-background:new 0 0 414.545 414.545;"
	 xml:space="preserve">
<g>
	<g>
		<path fill="#4680fe" d="M414.545,207.272c0-90.025-72.98-163.004-163.007-163.004c-10.067,0-19.918,0.919-29.479,2.665
			c75.953,13.876,133.525,80.381,133.525,160.339c0,79.959-57.572,146.464-133.525,160.34c9.563,1.745,19.414,2.664,29.48,2.664
			C341.564,370.276,414.545,297.298,414.545,207.272z"/>
		<path fill="#4680fe" d="M315.621,207.272c0-87.157-70.655-157.81-157.813-157.81C70.652,49.462,0,120.115,0,207.272
			c0,87.158,70.652,157.811,157.809,157.811C244.965,365.083,315.621,294.431,315.621,207.272z M189.489,292.72
			c0,6.455-5.231,11.688-11.687,11.688h-21.528c-6.454,0-11.688-5.232-11.688-11.688V161.545l-13.323,7.193
			c-3.171,1.711-6.953,1.866-10.251,0.417c-3.299-1.448-5.743-4.336-6.631-7.829l-4.254-16.765
			c-1.32-5.209,1.078-10.644,5.814-13.178l37.109-19.862c1.695-0.909,3.59-1.384,5.515-1.384h19.236
			c6.455,0,11.687,5.233,11.687,11.688L189.489,292.72L189.489,292.72z"/>
	</g>
</g>
<g>
</g>
<g>
</g>
<g>
</g>
<g>
</g>
<g>
</g>
<g>
</g>
<g>
</g>
<g>
</g>
<g>
</g>
<g>
</g>
<g>
</g>
<g>
</g>
<g>
</g>
<g>
</g>
<g>
</g>
</svg>
