<?xml version="1.0" encoding="iso-8859-1"?>
<!-- Generator: Adobe Illustrator 19.0.0, SVG Export Plug-In . SVG Version: 6.00 Build 0)  -->
<svg xmlns="http://www.w3.org/2000/svg" xmlns:xlink="http://www.w3.org/1999/xlink" version="1.1" id="Layer_1" x="0px" y="0px" viewBox="0 0 512.011 512.011" style="enable-background:new 0 0 512.011 512.011;" xml:space="preserve" width="512px" height="512px">
<g>
	<g>
		<path d="M444.896,67.12C399.712,21.958,358.88,0.006,320.011,0.006c-2.837,0-5.547,1.131-7.531,3.136    c-43.563,43.563-57.173,117.909,10.667,185.749c33.472,33.472,68.523,47.125,100.693,47.125c33.003,0,62.976-14.4,85.056-36.459    c1.984-2.005,3.115-4.715,3.115-7.552C512.011,153.136,490.08,112.283,444.896,67.12z M338.23,173.808    c-59.413-59.435-45.099-118.315-13.781-152.341c31.36,1.771,66.795,22.187,105.365,60.757    c38.571,38.571,58.987,73.984,60.757,105.365C456.544,218.928,397.664,233.243,338.23,173.808z" fill="#4680fe"/>
	</g>
</g>
<g>
	<g>
		<path d="M501.344,181.339c-23.125,0-73.899-25.024-109.781-60.885c-35.883-35.861-60.885-86.656-60.885-109.781    c0-5.888-4.779-10.667-10.667-10.667s-10.667,4.779-10.667,10.667c0,31.851,30.101,87.893,67.115,124.885    s93.035,67.115,124.885,67.115c5.888,0,10.667-4.779,10.667-10.667S507.232,181.339,501.344,181.339z" fill="#4680fe"/>
	</g>
</g>
<g>
	<g>
		<path d="M402.23,216.475c-4.16-4.16-10.923-4.16-15.083,0l-85.333,85.333c-4.352,4.331-25.323,2.261-59.584-32    c-34.261-34.261-36.331-55.253-32-59.584l85.333-85.333c4.16-4.16,4.16-10.923,0-15.083c-4.16-4.16-10.923-4.16-15.083,0    l-85.333,85.333c-13.952,13.952-12.885,44.864,32,89.749c29.248,29.248,52.565,39.893,69.12,39.893    c8.832,0,15.744-3.029,20.629-7.893l85.333-85.333C406.39,227.398,406.39,220.635,402.23,216.475z" fill="#4680fe"/>
	</g>
</g>
<g>
	<g>
		<path d="M316.875,301.808c-4.16-4.16-10.923-4.16-15.083,0c-4.16,4.16-4.16,10.923,0,15.083    c13.141,13.141,26.859,75.392-10.667,112.917c-18.347,18.325-69.803-10.219-134.251-74.667    C92.448,290.693,63.84,239.259,82.208,220.891c37.525-37.525,99.776-23.808,112.917-10.667c4.16,4.16,10.923,4.16,15.083,0    c4.16-4.16,4.16-10.923,0-15.083c-22.656-22.656-98.667-33.749-143.083,10.667c-37.099,37.099,20.139,109.888,74.667,164.416    c42.432,42.432,95.915,86.485,135.04,86.485c11.157,0,21.163-3.605,29.376-11.819    C350.624,400.475,339.552,324.485,316.875,301.808z" fill="#4680fe"/>
	</g>
</g>
<g>
	<g>
		<path d="M179.254,377.712c-3.499-4.736-10.155-5.781-14.912-2.283L60.256,451.76l76.331-104.085    c3.499-4.736,2.475-11.413-2.283-14.912s-11.435-2.475-14.912,2.283l-117.333,160c-3.115,4.245-2.645,10.133,1.067,13.845    c2.069,2.048,4.821,3.115,7.552,3.115c2.219,0,4.416-0.683,6.293-2.048l160-117.333    C181.707,389.147,182.731,382.469,179.254,377.712z" fill="#4680fe"/>
	</g>
</g>
<g>
</g>
<g>
</g>
<g>
</g>
<g>
</g>
<g>
</g>
<g>
</g>
<g>
</g>
<g>
</g>
<g>
</g>
<g>
</g>
<g>
</g>
<g>
</g>
<g>
</g>
<g>
</g>
<g>
</g>
</svg>
