<?xml version="1.0" encoding="iso-8859-1"?>
<!-- Generator: Adobe Illustrator 19.0.0, SVG Export Plug-In . SVG Version: 6.00 Build 0)  -->
<svg xmlns="http://www.w3.org/2000/svg" xmlns:xlink="http://www.w3.org/1999/xlink" version="1.1" id="Capa_1" x="0px" y="0px" viewBox="0 0 407.51 407.51" style="enable-background:new 0 0 407.51 407.51;" xml:space="preserve" width="512px" height="512px">
<g>
	<g>
		<g>
			<path d="M365.714,57.469c-0.542-5.937-5.533-10.474-11.494-10.449H83.069c-5.162-0.577-9.814,3.139-10.391,8.301     c-0.041,0.366-0.06,0.735-0.058,1.103l-2.09,246.596H11.494C5.196,303.987,0.416,309.201,0,315.559V332.8     c0.79,37.441,30.505,67.842,67.918,69.486h228.833c38.087,0.001,68.964-30.874,68.965-68.961c0-0.175-0.001-0.35-0.002-0.524     V57.469z M70.531,381.388c-27.008,0.006-49.064-21.585-49.633-48.588v-8.882h203.755v8.882     c0.054,18.367,7.602,35.916,20.898,48.588H70.531z M344.816,332.8c0,27.411-22.221,49.633-49.633,49.633     c-27.411,0-49.633-22.221-49.633-49.633v-17.241c0-5.747-3.657-12.539-9.404-12.539H91.429l2.09-235.102h251.298V332.8z" fill="#4680fe"/>
			<path d="M126.955,141.061h80.98c5.771,0,10.449-4.678,10.449-10.449c0-5.771-4.678-10.449-10.449-10.449h-80.98     c-5.771,0-10.449,4.678-10.449,10.449C116.506,136.383,121.184,141.061,126.955,141.061z" fill="#4680fe"/>
			<path d="M126.955,198.531h164.571c5.771,0,10.449-4.678,10.449-10.449s-4.678-10.449-10.449-10.449H126.955     c-5.771,0-10.449,4.678-10.449,10.449S121.184,198.531,126.955,198.531z" fill="#4680fe"/>
			<path d="M126.955,261.225h164.571c5.771,0,10.449-4.678,10.449-10.449s-4.678-10.449-10.449-10.449H126.955     c-5.771,0-10.449,4.678-10.449,10.449S121.184,261.225,126.955,261.225z" fill="#4680fe"/>
			<path d="M396.016,5.225H124.865c-5.771,0-10.449,4.678-10.449,10.449c0,5.771,4.678,10.449,10.449,10.449h261.747v264.882     c0,5.771,4.678,10.449,10.449,10.449s10.449-4.678,10.449-10.449V15.674C406.968,9.737,401.978,5.2,396.016,5.225z" fill="#4680fe"/>
		</g>
	</g>
</g>
<g>
</g>
<g>
</g>
<g>
</g>
<g>
</g>
<g>
</g>
<g>
</g>
<g>
</g>
<g>
</g>
<g>
</g>
<g>
</g>
<g>
</g>
<g>
</g>
<g>
</g>
<g>
</g>
<g>
</g>
</svg>
